<?xml version="1.0" encoding="UTF-8"?>
<svg id="Camada_2" data-name="Camada 2" xmlns="http://www.w3.org/2000/svg" viewBox="0 0 638.89 514.55">
  <defs>
    <style>
      .cls-1 {
        fill: #ffffff;
      }

      .cls-2 {
        fill: #ffffff;
      }

      .cls-3 {
        fill: #f1040a;
      }
    </style>
  </defs>
  <g id="Camada_1-2" data-name="Camada 1">
    <path class="cls-1" d="M349.04,0l-103.52,138.01-12.91,17.42-.02,349.27c-39.92-1.03-79.47-7.89-114.6-26.69-29.63-16.03-55.65-40.78-63.46-74.37-12.13-52.12,21.64-104.91,57-140.98l-.12-11.53c-31.5,23.69-60.26,48.45-83.21,80.4-14.07,19.6-25.1,41.77-27.72,65.93-2.59,23.87,5.25,46.85,21.33,64.55,11.71,12.89,25.78,22.55,41.61,30.04,14.75,6.97,29.9,12,45.98,15.41,32,6.77,64.21,8.31,96.89,6.29,18.88-1.3,36.82-3.54,55.51-6.46,29.65-5.45,58.54-12.63,87.31-21.97l-.08-485.3ZM288.97,156.5l.1,70.29-19.95.47-.09-44.56,19.94-26.19ZM289.13,275.16l-20.01.04-.08-45.05,20.01-.04.08,45.05ZM269.11,317.15l-.11-38.9,20.04-.06.11,38.9-20.04.06ZM292.06,229.68h20.49v45.02h-20.49v-45.02ZM312.56,316.88h-20.49v-39.26h20.49v39.26ZM292.1,226.77l-.03-74.17,20.45-27.03.05,100.91-20.47.29Z"/>
    <path class="cls-3" d="M380.78,8.1l-.08,456.58.32,9.52c20.21-7.96,38.61-17.13,57.55-27.5,20.48-11.47,39.37-24.42,57.26-39.1l.03-183.92L380.78,8.1ZM438.62,192.78l20.09,37.64c.44,3.62.48,6.95.12,10.57l-20.41-.58.2-47.63ZM438.35,243.37h20.73s-.01,39.12-.01,39.12h-20.73s.01-39.12.01-39.12ZM417.17,152.83l18.34,34.09.04,53.25-18.49-.35.11-86.99ZM435.56,242.77v39.12s-18.48,0-18.48,0v-39.12s18.48,0,18.48,0ZM435.54,318.87h-18.47s.02-34.33.02-34.33h18.47s-.02,34.33-.02,34.33ZM458.96,319.2l-20.74-.08.14-34.28,20.74.08-.13,34.28Z"/>
    <g>
      <path class="cls-1" d="M502.87,413.73c-17.01,10.51-33.33,20.78-51.34,29.03,31.03-19.43,59.31-41.86,83.97-68.9,23.51-26.12,43.77-56.29,50.2-91.24,5.5-29.86-2.98-59.57-23.04-82.22-25.6-28.9-65.78-45-103.51-51.68l-7.45-14c54.13-1.46,125.91,9.5,164.67,50.78,27.13,28.89,27.98,66.3,11.91,101.42-23.54,51.47-77.92,96.43-125.41,126.81Z"/>
      <path class="cls-2" d="M378.01,145.73l-26.56,1.99c8.52-3.27,17.23-4.02,26.37-6.12.61,1.27.53,2.35.19,4.13Z"/>
    </g>
    <path class="cls-3" d="M185.39,178.35l-29.23,28.65-28.63,28.04-13.12,12.96-.05,224.71c28.68,16.29,59.24,24.19,91.72,27.48V158.32s-20.7,20.03-20.7,20.03ZM157,251.45l2.71-2.11-.04,32.68-15.95.28-.02-17.84,13.3-13.01ZM143.66,327.68l.08-20.62,15.96-.33v20.8s-16.04.16-16.04.16ZM143.66,305.45l.09-21.33,15.88-.52.1,21.24-16.08.61ZM161.59,247.21l10.33-10.11,4.71-4.05.21,48.42-15.23.3-.02-34.56ZM176.79,283.31l.05,21.08-15.16.36-.07-20.97,15.18-.47ZM161.69,327.46l-.02-20.65,15.23-.49.18,20.69-15.39.45Z"/>
  </g>
</svg>
